HIERARCHY
ROOT hip
{
	OFFSET 0.000000 0.000000 0.000000
	CHANNELS 6 Xposition Yposition Zposition Xrotation Zrotation Yrotation 
	JOINT abdomen
	{
		OFFSET 0.000000 3.422050 0.000000
		CHANNELS 3 Xrotation Zrotation Yrotation 
		JOINT chest
		{
			OFFSET 0.000000 8.486693 -0.684411
			CHANNELS 3 Xrotation Zrotation Yrotation 
			JOINT neck
			{
				OFFSET 0.000000 10.266162 -0.273764
				CHANNELS 3 Xrotation Zrotation Yrotation 
				JOINT head
				{
					OFFSET 0.000000 3.148285 0.000000
					CHANNELS 3 Xrotation Zrotation Yrotation 
					End Site
					{
						OFFSET 0.000000 3.148289 0.000000
					}
				}
			}
			JOINT lCollar
			{
				OFFSET 3.422053 6.707223 -0.821293
				CHANNELS 3 Yrotation Zrotation Xrotation 
				JOINT lShldr
				{
					OFFSET 3.285171 0.000000 0.000000
					CHANNELS 3 Zrotation Yrotation Xrotation 
					JOINT lForeArm
					{
						OFFSET 10.129278 0.000000 0.000000
						CHANNELS 3 Yrotation Zrotation Xrotation 
						JOINT lHand
						{
							OFFSET 8.486692 0.000000 0.000000
							CHANNELS 3 Zrotation Yrotation Xrotation 
							End Site
							{
								OFFSET 4.106464 0.000000 0.000000
							}
						}
					}
				}
			}
			JOINT rCollar
			{
				OFFSET -3.558935 6.707223 -0.821293
				CHANNELS 3 Yrotation Zrotation Xrotation 
				JOINT rShldr
				{
					OFFSET -3.148289 0.000000 0.000000
					CHANNELS 3 Zrotation Yrotation Xrotation 
					JOINT rForeArm
					{
						OFFSET -10.266159 0.000000 0.000000
						CHANNELS 3 Yrotation Zrotation Xrotation 
						JOINT rHand
						{
							OFFSET -8.349810 0.000000 0.000000
							CHANNELS 3 Zrotation Yrotation Xrotation 
							End Site
							{
								OFFSET -4.106464 0.000000 0.000000
							}
						}
					}
				}
			}
		}
	}
	JOINT lThigh
	{
		OFFSET 5.338403 -1.642589 1.368821
		CHANNELS 3 Xrotation Zrotation Yrotation 
		JOINT lShin
		{
			OFFSET -2.053232 -20.121670 0.000000
			CHANNELS 3 Xrotation Zrotation Yrotation 
			JOINT lFoot
			{
				OFFSET 0.000000 -19.300380 -1.231939
				CHANNELS 3 Xrotation Yrotation Zrotation 
				End Site
				{
					OFFSET 0.000000 -2.463878 4.653993
				}
			}
		}
	}
	JOINT rThigh
	{
		OFFSET -5.338403 -1.642589 1.368821
		CHANNELS 3 Xrotation Zrotation Yrotation 
		JOINT rShin
		{
			OFFSET 2.053232 -20.121670 0.000000
			CHANNELS 3 Xrotation Zrotation Yrotation 
			JOINT rFoot
			{
				OFFSET 0.000000 -19.300380 -1.231939
				CHANNELS 3 Xrotation Yrotation Zrotation 
				End Site
				{
					OFFSET 0.000000 -2.463878 4.653993
				}
			}
		}
	}
}
MOTION
Frames: 10
Frame Time: 0.033302
0.000000 43.528500 0.000000 0.000000 0.000000 0.000000 0.000000 0.000000 0.000000 0.000000 0.000000 0.000000 0.000000 0.000000 0.000000 0.000000 0.000000 0.000000 0.000000 0.000000 0.000000 0.000000 0.000000 0.000000 0.000000 0.000000 0.000000 0.000000 0.000000 0.000000 0.000000 0.000000 0.000000 0.000000 0.000000 0.000000 0.000000 0.000000 0.000000 0.000000 0.000000 0.000000 0.000000 0.000000 0.000000 0.000000 0.000000 0.000000 0.000000 0.000000 0.000000 0.000000 0.000000 0.000000 0.000000 0.000000 0.000000 0.000000 0.000000 0.000000 
0.000000 43.483444 0.000000 0.000000 0.000000 -19.082626 -9.014235 -4.016580 -0.011451 -0.012241 -1.015922 0.000109 11.980896 8.964627 -0.011446 0.000000 0.000000 0.000000 0.000000 -3.009606 0.000000 -82.011467 20.983906 0.001990 -48.020100 11.981027 -0.011616 -34.554256 -20.156931 41.198940 -0.012274 4.920194 0.000527 82.995872 -22.012058 -0.016637 52.986065 -10.010321 -0.000848 33.992054 -2.404155 29.392561 2.488542 -0.050888 -0.314176 1.484589 -0.148454 -0.014164 -3.415032 9.337134 -3.430313 -8.193147 -11.073293 -0.093877 11.203422 0.575715 -0.012057 5.988491 2.538901 4.875955 
-0.000335 43.483444 0.000000 0.000000 0.000000 -19.076281 -9.014235 -4.016580 -0.011451 -0.015040 -1.016133 -0.020709 11.985283 8.973454 -0.011587 0.204146 0.187893 -0.772665 0.000000 -3.009606 0.000000 -82.373207 20.915758 -0.783887 -47.766678 12.013759 -0.105459 -34.569805 -20.137838 41.167877 -0.012274 4.920194 0.000527 82.995872 -22.012058 -0.016637 52.986065 -10.010321 -0.000848 34.063145 -2.133579 29.397533 2.488325 -0.046129 -0.313697 1.481337 -0.150811 -0.013959 -3.407620 9.367320 -3.429871 -8.312933 -10.895378 1.243333 11.203204 0.574622 -0.011988 6.048098 1.033513 5.136069 
-0.000671 43.483444 0.000000 0.000000 0.000000 -19.069937 -9.014235 -4.016580 -0.011451 -0.017838 -1.016345 -0.041526 11.989668 8.982281 -0.011727 0.405982 0.378749 -1.545587 0.000000 -3.009606 0.000000 -82.734093 20.842916 -1.569682 -47.513142 12.046092 -0.199476 -34.585361 -20.118750 41.136806 -0.012274 4.920193 0.000527 82.995857 -22.012056 -0.016636 52.986061 -10.010320 -0.000848 34.134266 -1.862961 29.402851 2.488109 -0.041370 -0.313218 1.478084 -0.153168 -0.013754 -3.400204 9.397500 -3.429430 -8.428419 -10.714720 2.579725 11.202989 0.573529 -0.011918 6.114797 -0.477364 5.398723 
-0.001006 43.483444 0.000000 0.000000 0.000000 -19.063587 -9.014234 -4.016580 -0.011451 -0.020636 -1.016557 -0.062343 11.994051 8.991104 -0.011866 0.605446 0.572522 -2.318695 0.000000 -3.009606 0.000000 -83.094009 20.765387 -2.355275 -47.259464 12.078017 -0.293663 -34.600933 -20.099667 41.105740 -0.012274 4.920194 0.000527 82.995872 -22.012058 -0.016637 52.986065 -10.010321 -0.000848 34.205410 -1.592301 29.408501 2.487893 -0.036611 -0.312738 1.474831 -0.155526 -0.013548 -3.392790 9.427684 -3.428996 -8.539520 -10.531466 3.914947 11.202770 0.572436 -0.011849 6.188731 -1.993182 5.664211 
-0.001341 43.483444 0.000000 0.000000 0.000000 -19.057241 -9.014235 -4.016580 -0.011451 -0.023434 -1.016771 -0.083161 11.998436 8.999929 -0.012004 0.802478 0.769162 -3.091916 0.000000 -3.009606 0.000000 -83.452858 20.683187 -3.140546 -47.005684 12.109545 -0.388019 -34.616501 -20.080589 41.074661 -0.012274 4.920195 0.000527 82.995872 -22.012058 -0.016637 52.986065 -10.010321 -0.000848 34.276588 -1.321605 29.414486 2.487677 -0.031852 -0.312259 1.471579 -0.157883 -0.013343 -3.385375 9.457867 -3.428564 -8.646155 -10.345769 5.248653 11.202553 0.571343 -0.011779 6.270060 -3.513380 5.932837 
-0.001677 43.483444 0.000000 0.000000 0.000000 -19.050892 -9.014235 -4.016580 -0.011451 -0.026232 -1.016986 -0.103978 12.002821 9.008756 -0.012142 0.997019 0.968619 -3.865179 0.000000 -3.009606 0.000000 -83.810524 20.596333 -3.925379 -46.751797 12.140667 -0.482539 -34.632088 -20.061523 41.043583 -0.012274 4.920194 0.000527 82.995872 -22.012058 -0.016637 52.986065 -10.010321 -0.000848 34.347778 -1.050876 29.420801 2.487467 -0.027093 -0.311780 1.468326 -0.160240 -0.013137 -3.377959 9.488049 -3.428137 -8.763068 -10.112179 6.949518 11.202335 0.570251 -0.011710 6.358960 -5.037384 6.204918 
-0.002012 43.483444 0.000000 0.000000 0.000000 -19.044546 -9.014235 -4.016580 -0.011451 -0.029030 -1.017202 -0.124796 12.007208 9.017583 -0.012279 1.189011 1.170841 -4.638414 0.000000 -3.009606 0.000000 -84.166916 20.504852 -4.709660 -46.497780 12.171380 -0.577221 -34.647678 -20.042463 41.012505 -0.012274 4.920194 0.000527 82.995857 -22.012056 -0.016636 52.986069 -10.010321 -0.000847 34.419025 -0.780117 29.427460 2.487251 -0.022335 -0.311301 1.465073 -0.162597 -0.012932 -3.370543 9.518232 -3.427713 -8.872876 -9.875120 8.649788 11.202119 0.569158 -0.011640 6.455624 -6.564609 6.480780 
-0.002348 43.483444 0.000000 0.000000 0.000000 -19.038198 -9.014235 -4.016580 -0.011451 -0.031828 -1.017419 -0.145614 12.011593 9.026409 -0.012415 1.378398 1.375774 -5.411549 0.000000 -3.009606 0.000000 -84.521889 20.408754 -5.493267 -46.243660 12.201686 -0.672063 -34.663284 -20.023413 40.981422 -0.012274 4.920193 0.000527 82.995872 -22.012056 -0.016638 52.986065 -10.010321 -0.000848 34.490299 -0.509334 29.434458 2.487037 -0.017576 -0.310822 1.461824 -0.164955 -0.012726 -3.363127 9.548415 -3.427294 -8.975445 -9.634904 10.348753 11.201901 0.568065 -0.011571 6.560264 -8.094460 6.760763 
-0.002683 43.483444 0.000000 0.000000 0.000000 -19.031855 -9.014235 -4.016580 -0.011451 -0.034626 -1.017637 -0.166432 12.015978 9.035234 -0.012551 1.565125 1.583360 -6.184516 0.000000 -3.009606 0.000000 -84.875381 20.308073 -6.276089 -45.989445 12.231584 -0.767062 -34.678898 -20.004370 40.950336 -0.012274 4.920194 0.000527 82.995872 -22.012058 -0.016637 52.986065 -10.010321 -0.000848 34.561619 -0.238530 29.441793 2.486822 -0.012817 -0.310343 1.458572 -0.167312 -0.012520 -3.355710 9.578598 -3.426878 -9.070659 -9.391854 12.045703 11.201684 0.566972 -0.011502 6.673118 -9.626340 7.045226 
